#Comment line ignore any data following # character 
#Hierarchical Translation and Rotation (.htr) file 
[Header]	
#Header keywords are followed by a single value 
FileType HTR		#Single word string
DataType HTRS		#Translation followed by rotation and scale data
FileVersion 1		#integer
NumSegments 64		#integer
NumFrames 3		#integer
DataFrameRate 30		#integer, data frame rate in this file
EulerRotationOrder ZYX
CalibrationUnits mm
RotationUnits Degrees
GlobalAxisofGravity Y
BoneLengthAxis Y
ScaleFactor 1.00
[SegmentNames&Hierarchy]
#CHILD	PARENT
Pinger_Root GLOBAL
Pelvis Pinger_Root
L_Hip Pelvis
R_Hip Pelvis
Rear_Leg01 Pelvis
Spine1 Pelvis
L_Leg01 L_Hip
L_Leg02 L_Leg01
L_Leg03 L_Leg02
L_Foot L_Leg03
L_Toe1_01 L_Foot
L_Toe2_01 L_Foot
L_Toe3_01 L_Foot
planeAlignerLeft L_Foot
L_Toe1_02 L_Toe1_01
L_Toe1_03 L_Toe1_02
L_Toe2_02 L_Toe2_01
L_Toe2_03 L_Toe2_02
L_Toe3_02 L_Toe3_01
L_Toe3_03 L_Toe3_02
planeLockWeightLeft planeAlignerLeft
R_Leg01 R_Hip
R_Leg02 R_Leg01
R_Leg03 R_Leg02
R_Foot R_Leg03
planeAlignerRight R_Foot
R_Toe1_01 R_Foot
R_Toe2_01 R_Foot
R_Toe3_01 R_Foot
planeLockWeightRight planeAlignerRight
R_Toe1_02 R_Toe1_01
R_Toe1_03 R_Toe1_02
R_Toe2_02 R_Toe2_01
R_Toe2_03 R_Toe2_02
R_Toe3_02 R_Toe3_01
R_Toe3_03 R_Toe3_02
Rear_Leg02 Rear_Leg01
Rear_Leg03 Rear_Leg02
Rear_Leg04 Rear_Leg03
Rear_Foot Rear_Leg04
planeAlignerCenter Rear_Foot
Rear_Toe1_01 Rear_Foot
Rear_Toe2_01 Rear_Foot
Rear_Toe3_01 Rear_Foot
planeLockWeightCenter planeAlignerCenter
Rear_Toe1_02 Rear_Toe1_01
Rear_Toe1_03 Rear_Toe1_02
Rear_Toe2_02 Rear_Toe2_01
Rear_Toe2_03 Rear_Toe2_02
Rear_Toe3_02 Rear_Toe3_01
Rear_Toe3_03 Rear_Toe3_02
Back_Bone Spine1
Head Spine1
Motor_Bone Back_Bone
Ping_Mechanism Back_Bone
BN_LookIK Head
bottomMouth Head
L_Mouth01 Head
L_mouthFront Head
mouthGun Head
R_Mouth01 Head
R_mouthFront Head
TopMouth Head
weapon_bone Head
[BasePosition]
#SegmentName Tx, Ty, Tz, Rx, Ry, Rz, BoneLength
Pinger_Root 0.000000 0.000000 0.000000 -90.000000 0.000000 0.000000 10.000000 
Pelvis 0.000000 0.000000 0.000000 0.000000 0.000000 0.000000 10.000000 
L_Hip 0.000000 0.000000 0.000000 0.000000 0.000000 0.000000 10.000000 
R_Hip 0.000000 0.000000 0.000000 0.000000 0.000000 0.000000 10.000000 
Rear_Leg01 0.000000 0.000000 0.000000 0.000000 0.000000 0.000000 10.000000 
Spine1 0.000000 0.000000 0.000000 0.000000 0.000000 0.000000 10.000000 
L_Leg01 0.000000 0.000000 0.000000 0.000000 0.000000 0.000000 10.000000 
L_Leg02 0.000000 0.000000 0.000000 0.000000 0.000000 0.000000 10.000000 
L_Leg03 0.000000 0.000000 0.000000 0.000000 0.000000 0.000000 10.000000 
L_Foot 0.000000 0.000000 0.000000 0.000000 0.000000 0.000000 10.000000 
L_Toe1_01 0.000000 0.000000 0.000000 0.000000 0.000000 0.000000 10.000000 
L_Toe2_01 0.000000 0.000000 0.000000 0.000000 0.000000 0.000000 10.000000 
L_Toe3_01 0.000000 0.000000 0.000000 0.000000 0.000000 0.000000 10.000000 
planeAlignerLeft 0.000000 0.000000 0.000000 0.000000 0.000000 0.000000 10.000000 
L_Toe1_02 0.000000 0.000000 0.000000 0.000000 0.000000 0.000000 10.000000 
L_Toe1_03 0.000000 0.000000 0.000000 0.000000 0.000000 0.000000 10.000000 
L_Toe2_02 0.000000 0.000000 0.000000 0.000000 0.000000 0.000000 10.000000 
L_Toe2_03 0.000000 0.000000 0.000000 0.000000 0.000000 0.000000 10.000000 
L_Toe3_02 0.000000 0.000000 0.000000 0.000000 0.000000 0.000000 10.000000 
L_Toe3_03 0.000000 0.000000 0.000000 0.000000 0.000000 0.000000 10.000000 
planeLockWeightLeft 0.000000 0.000000 0.000000 0.000000 0.000000 0.000000 10.000000 
R_Leg01 0.000000 0.000000 0.000000 0.000000 0.000000 0.000000 10.000000 
R_Leg02 0.000000 0.000000 0.000000 0.000000 0.000000 0.000000 10.000000 
R_Leg03 0.000000 0.000000 0.000000 0.000000 0.000000 0.000000 10.000000 
R_Foot 0.000000 0.000000 0.000000 0.000000 0.000000 0.000000 10.000000 
planeAlignerRight 0.000000 0.000000 0.000000 0.000000 0.000000 0.000000 10.000000 
R_Toe1_01 0.000000 0.000000 0.000000 0.000000 0.000000 0.000000 10.000000 
R_Toe2_01 0.000000 0.000000 0.000000 0.000000 0.000000 0.000000 10.000000 
R_Toe3_01 0.000000 0.000000 0.000000 0.000000 0.000000 0.000000 10.000000 
planeLockWeightRight 0.000000 0.000000 0.000000 0.000000 0.000000 0.000000 10.000000 
R_Toe1_02 0.000000 0.000000 0.000000 0.000000 0.000000 0.000000 10.000000 
R_Toe1_03 0.000000 0.000000 0.000000 0.000000 0.000000 0.000000 10.000000 
R_Toe2_02 0.000000 0.000000 0.000000 0.000000 0.000000 0.000000 10.000000 
R_Toe2_03 0.000000 0.000000 0.000000 0.000000 0.000000 0.000000 10.000000 
R_Toe3_02 0.000000 0.000000 0.000000 0.000000 0.000000 0.000000 10.000000 
R_Toe3_03 0.000000 0.000000 0.000000 0.000000 0.000000 0.000000 10.000000 
Rear_Leg02 0.000000 0.000000 0.000000 0.000000 0.000000 0.000000 10.000000 
Rear_Leg03 0.000000 0.000000 0.000000 0.000000 0.000000 0.000000 10.000000 
Rear_Leg04 0.000000 0.000000 0.000000 0.000000 0.000000 0.000000 10.000000 
Rear_Foot 0.000000 0.000000 0.000000 0.000000 0.000000 0.000000 10.000000 
planeAlignerCenter 0.000000 0.000000 0.000000 0.000000 0.000000 0.000000 10.000000 
Rear_Toe1_01 0.000000 0.000000 0.000000 0.000000 0.000000 0.000000 10.000000 
Rear_Toe2_01 0.000000 0.000000 0.000000 0.000000 0.000000 0.000000 10.000000 
Rear_Toe3_01 0.000000 0.000000 0.000000 0.000000 0.000000 0.000000 10.000000 
planeLockWeightCenter 0.000000 0.000000 0.000000 0.000000 0.000000 0.000000 10.000000 
Rear_Toe1_02 0.000000 0.000000 0.000000 0.000000 0.000000 0.000000 10.000000 
Rear_Toe1_03 0.000000 0.000000 0.000000 0.000000 0.000000 0.000000 10.000000 
Rear_Toe2_02 0.000000 0.000000 0.000000 0.000000 0.000000 0.000000 10.000000 
Rear_Toe2_03 0.000000 0.000000 0.000000 0.000000 0.000000 0.000000 10.000000 
Rear_Toe3_02 0.000000 0.000000 0.000000 0.000000 0.000000 0.000000 10.000000 
Rear_Toe3_03 0.000000 0.000000 0.000000 0.000000 0.000000 0.000000 10.000000 
Back_Bone 0.000000 0.000000 0.000000 0.000000 0.000000 0.000000 10.000000 
Head 0.000000 0.000000 0.000000 0.000000 0.000000 0.000000 10.000000 
Motor_Bone 0.000000 0.000000 0.000000 0.000000 0.000000 0.000000 10.000000 
Ping_Mechanism 0.000000 0.000000 0.000000 0.000000 0.000000 0.000000 10.000000 
BN_LookIK 0.000000 0.000000 0.000000 0.000000 0.000000 0.000000 10.000000 
bottomMouth 0.000000 0.000000 0.000000 0.000000 0.000000 0.000000 10.000000 
L_Mouth01 0.000000 0.000000 0.000000 0.000000 0.000000 0.000000 10.000000 
L_mouthFront 0.000000 0.000000 0.000000 0.000000 0.000000 0.000000 10.000000 
mouthGun 0.000000 0.000000 0.000000 0.000000 0.000000 0.000000 10.000000 
R_Mouth01 0.000000 0.000000 0.000000 0.000000 0.000000 0.000000 10.000000 
R_mouthFront 0.000000 0.000000 0.000000 0.000000 0.000000 0.000000 10.000000 
TopMouth 0.000000 0.000000 0.000000 0.000000 0.000000 0.000000 10.000000 
weapon_bone 0.000000 0.000000 0.000000 0.000000 0.000000 0.000000 10.000000 
#Beginning of Data. Separated by tabs
#Fr	Tx	Ty	Tz	Rx	Ry	Rz	SF
[Pinger_Root]
21 0.000000 2592.592285 0.000000 -0.000075 -0.000000 -0.000020 2592.592285
22 0.000000 2722.222168 0.000000 -0.000075 -0.000000 -0.000020 2722.222168
23 0.000000 2851.851563 0.000000 -0.000075 -0.000000 -0.000020 2851.851318
[Pelvis]
21 -314.149902 1031.044067 4960.735840 39.273491 -73.414497 -28.418184 5076.479492
22 -279.640442 1000.215759 4965.148926 35.901863 -71.634247 -23.451355 5072.606445
23 -237.796814 982.116272 4973.313477 34.999962 -70.811089 -20.952826 5074.933105
[L_Hip]
21 5.766392 125.831482 872.656799 -178.250168 -81.786369 87.376007 881.701050
22 5.766392 125.831482 872.656799 -178.250168 -81.786369 87.376007 881.701050
23 5.766392 125.831482 872.656799 -178.250168 -81.786369 87.376007 881.701050
[R_Hip]
21 5.765438 125.836372 -872.654907 -1.748770 81.786041 87.376961 881.699829
22 5.765438 125.836372 -872.654907 -1.748770 81.786041 87.376961 881.699829
23 5.765438 125.836372 -872.654907 -1.748770 81.786041 87.376961 881.699829
[Rear_Leg01]
21 -192.298416 -925.602966 -0.001907 -167.330536 12.951821 -154.771393 945.367432
22 -192.298416 -925.602966 -0.001907 -164.379242 12.500689 -150.326630 945.367432
23 -192.298416 -925.602966 -0.001907 -162.381058 11.066103 -147.891754 945.367432
[Spine1]
21 290.604584 5.007505 0.000477 -15.181264 -5.885368 37.928474 290.647736
22 290.604584 5.007505 0.000477 -18.035805 -6.825476 38.168144 290.647736
23 290.604584 5.007505 0.000477 -20.262972 -6.739389 38.349686 290.647736
[L_Leg01]
21 761.932007 -0.002384 -0.069261 77.445740 14.974238 -91.441345 761.932068
22 761.932007 -0.002384 -0.069261 78.044983 15.912705 -92.817406 761.932068
23 761.932007 -0.002384 -0.069261 79.049210 17.109398 -92.830353 761.932068
[L_Leg02]
21 1441.140503 -0.000954 -0.000715 -1.377899 0.747445 -80.608643 1441.140503
22 1441.140503 -0.000954 -0.000715 -1.357197 0.771916 -77.365639 1441.140503
23 1441.140503 -0.000954 -0.000715 -1.340251 0.790241 -74.629196 1441.140503
[L_Leg03]
21 1686.963989 -0.000715 -0.000954 0.088494 -0.012952 86.384056 1686.963989
22 1686.963989 -0.000715 -0.000954 0.097523 -0.012602 84.243683 1686.963989
23 1686.963989 -0.000715 -0.000954 0.104691 -0.010630 82.462509 1686.963989
[L_Foot]
21 3041.570068 -30.715107 11.297464 -15.604655 8.905872 84.319626 3041.746094
22 3041.570068 -30.715107 11.297464 -16.440756 7.963395 84.312981 3041.746094
23 3041.570068 -30.715107 11.297464 -17.417336 7.388553 84.569878 3041.746094
[L_Toe1_01]
21 -188.216690 -224.732346 -21.137953 88.903427 -1.632114 -149.307556 293.899567
22 -188.216690 -224.732346 -21.137953 88.870888 -1.609041 -148.125168 293.899567
23 -188.216690 -224.732346 -21.137953 88.838806 -1.585300 -146.942810 293.899567
[L_Toe2_01]
21 200.746536 -219.926590 148.838394 -75.243690 -11.140184 -56.477627 332.896027
22 200.746536 -219.926590 148.838394 -75.076828 -10.909990 -57.432602 332.896027
23 200.746536 -219.926590 148.838394 -74.913994 -10.677093 -58.386131 332.896027
[L_Toe3_01]
21 188.832520 -219.859131 -191.078659 -109.095573 13.708111 -58.418007 347.140900
22 188.832520 -219.859131 -191.078659 -109.280197 13.439314 -59.276535 347.140900
23 188.832520 -219.859131 -191.078659 -109.460464 13.167850 -60.133251 347.140900
[planeAlignerLeft]
21 -75.418991 -769.315247 0.048828 0.000000 -90.000000 -90.001900 773.003174
22 -76.798248 -782.139954 0.046616 0.000000 -90.000000 -90.001900 785.901367
23 -78.177483 -794.964600 0.044403 0.000000 -90.000000 -90.001900 798.799438
[L_Toe1_02]
21 413.761139 0.000477 0.000000 0.001385 -25.904909 0.001385 413.761139
22 413.761139 0.000477 0.000000 0.001385 -25.873014 0.001385 413.761139
23 413.761139 0.000477 0.000000 0.001385 -25.841122 0.001385 413.761139
[L_Toe1_03]
21 464.317322 0.000358 -0.000089 0.003785 53.859913 0.003785 464.317322
22 464.317322 0.000358 -0.000089 0.003546 51.347614 0.003546 464.317322
23 464.317322 0.000358 -0.000089 0.003366 49.189697 0.003366 464.317322
[L_Toe2_02]
21 342.235809 -0.000477 0.000238 0.001183 -75.945717 0.001183 342.235809
22 342.235809 -0.000477 0.000238 0.001183 -75.544601 0.001183 342.235809
23 342.235809 -0.000477 0.000238 0.001184 -75.143585 0.001184 342.235809
[L_Toe2_03]
21 420.210846 -0.000715 0.000000 -179.990646 84.064095 -179.987152 420.210846
22 420.210846 -0.000715 0.000000 -179.986557 85.665146 -179.983047 420.210846
23 420.210846 -0.000715 0.000000 -179.981018 86.822693 -179.977524 420.210846
[L_Toe3_02]
21 329.270111 0.000954 0.000000 0.001178 -79.683517 0.001178 329.270111
22 329.270111 0.000954 0.000000 0.001179 -79.312164 0.001179 329.270111
23 329.270111 0.000954 0.000000 0.001179 -78.940842 0.001179 329.270111
[L_Toe3_03]
21 439.137451 -0.001907 0.000954 -179.993744 81.777245 -179.990219 439.137451
22 439.137451 -0.001907 0.000954 -179.991959 83.267189 -179.988464 439.137451
23 439.137451 -0.001907 0.000954 -179.990097 84.348335 -179.986588 439.137451
[planeLockWeightLeft]
21 999.998718 0.098149 0.076281 -0.011826 -0.004376 0.005620 999.998779
22 999.998718 0.098143 0.076290 -0.011826 -0.004376 0.005620 999.998779
23 999.998718 0.098137 0.076298 -0.011826 -0.004376 0.005620 999.998779
[R_Leg01]
21 761.455627 -0.001907 -0.000358 85.732391 -13.418953 57.190361 761.455688
22 761.455627 -0.001907 -0.000358 88.429878 -12.526961 52.436684 761.455688
23 761.455627 -0.001907 -0.000358 92.522308 -13.411318 49.042149 761.455688
[R_Leg02]
21 1441.140625 0.000000 -0.000238 -1.395502 -0.731627 -159.696625 1441.140625
22 1441.140625 0.000000 -0.000238 -1.451046 -0.963320 -157.462875 1441.140625
23 1441.140625 0.000000 -0.000238 -1.416006 -0.944817 -151.141586 1441.140625
[R_Leg03]
21 1686.963989 0.000954 0.001431 0.121033 -0.076007 143.023911 1686.963989
22 1686.963989 0.000954 0.001431 0.136010 -0.091301 147.949326 1686.963989
23 1686.963989 0.000954 0.001431 0.141646 -0.095408 148.530380 1686.963989
[R_Foot]
21 3041.560059 -30.531288 -11.204481 14.727018 -42.976170 75.253075 3041.734131
22 3041.560059 -30.531288 -11.204481 11.042412 -42.116745 73.610809 3041.734131
23 3041.560059 -30.531288 -11.204481 8.450727 -39.815159 68.650993 3041.734131
[planeAlignerRight]
21 -225.506165 -800.457520 12.644763 0.000000 -89.960434 -90.005180 831.712219
22 -227.821121 -799.288513 11.670788 0.000000 -89.960434 -90.005180 831.204407
23 -230.136078 -798.119446 10.696815 0.000000 -89.960434 -90.005180 830.705505
[R_Toe1_01]
21 -188.383347 -224.864899 21.052242 91.293991 0.980236 -145.238785 294.101532
22 -188.383347 -224.864899 21.052242 91.264816 1.056777 -145.417068 294.101532
23 -188.383347 -224.864899 21.052242 91.238007 1.167266 -145.360916 294.101532
[R_Toe2_01]
21 200.637817 -220.002121 -148.787384 -107.615784 7.267126 -82.732918 332.857574
22 200.637817 -220.002121 -148.787384 -107.604446 7.851243 -82.115547 332.857574
23 200.637817 -220.002121 -148.787384 -107.569603 8.489105 -81.084557 332.857574
[R_Toe3_01]
21 188.606735 -220.092957 191.126343 -67.222008 -9.827599 -84.188095 347.192566
22 188.606735 -220.092957 191.126343 -67.273537 -10.260285 -83.367355 347.192566
23 188.606735 -220.092957 191.126343 -67.331451 -10.692198 -82.545067 347.192566
[planeLockWeightRight]
21 -0.000191 -0.000610 0.076447 -0.011823 -0.004379 -0.000027 0.076449
22 103.999466 -0.000610 0.076447 -0.011823 -0.004379 -0.000027 103.999496
23 351.998871 -0.000610 0.076294 -0.011823 -0.004379 -0.000027 351.998871
[R_Toe1_02]
21 413.762085 0.000477 -0.000119 0.001401 -23.833115 0.001401 413.762085
22 413.762085 0.000477 -0.000119 0.001398 -24.235197 0.001398 413.762085
23 413.762085 0.000477 -0.000119 0.001394 -24.637259 0.001394 413.762085
[R_Toe1_03]
21 464.317810 0.000000 0.001088 0.008656 74.412094 0.008656 464.317810
22 464.317810 0.000000 0.001088 0.007575 72.173409 0.007575 464.317810
23 464.317810 0.000000 0.001088 0.006604 69.521332 0.006604 464.317810
[R_Toe2_02]
21 342.234741 -0.000954 0.000238 -0.002331 -80.445084 -0.002331 342.234741
22 342.234741 -0.000954 0.000238 -0.002331 -80.525993 -0.002331 342.234741
23 342.234741 -0.000954 0.000238 -0.002331 -80.606941 -0.002331 342.234741
[R_Toe2_03]
21 420.210846 0.000715 -0.000268 -179.996201 56.159340 -179.999863 420.210846
22 420.210846 0.000715 -0.000268 -179.996231 55.371765 -179.999893 420.210846
23 420.210846 0.000715 -0.000268 -179.996246 55.095646 -179.999924 420.210846
[R_Toe3_02]
21 329.270355 -0.000477 -0.000954 0.001175 -84.125336 0.001175 329.270355
22 329.270355 -0.000477 -0.000954 0.001175 -84.228912 0.001175 329.270355
23 329.270355 -0.000477 -0.000954 0.001175 -84.332474 0.001175 329.270355
[R_Toe3_03]
21 439.137939 0.000238 0.001431 -179.995834 55.451458 -179.988525 439.137939
22 439.137939 0.000238 0.001431 -179.996017 54.646881 -179.988678 439.137939
23 439.137939 0.000238 0.001431 -179.996094 54.313385 -179.988754 439.137939
[Rear_Leg02]
21 1162.777710 -0.029802 0.005960 -6.427920 3.991009 -140.285904 1162.777710
22 1162.777710 -0.029802 0.005960 -7.664973 4.726064 -136.034286 1162.777710
23 1162.777710 -0.029802 0.005960 -8.702831 5.408638 -134.247223 1162.777710
[Rear_Leg03]
21 607.192505 -0.013351 -0.073195 0.010018 -0.005982 78.039642 607.192505
22 607.192505 -0.013351 -0.073195 0.010019 -0.005981 78.028519 607.192505
23 607.192505 -0.013351 -0.073195 0.010020 -0.005980 78.017372 607.192505
[Rear_Leg04]
21 995.874512 -0.020504 -0.011921 -0.043696 -0.015979 93.983551 995.874573
22 995.874512 -0.020504 -0.011921 -0.043685 -0.016009 93.905716 995.874573
23 995.874512 -0.020504 -0.011921 -0.043675 -0.016039 93.827888 995.874573
[Rear_Foot]
21 3096.176270 -0.067472 -0.041425 64.585480 81.706680 -133.812622 3096.176270
22 3096.176270 -0.067472 -0.041425 72.133102 80.628105 -126.331779 3096.176270
23 3096.176270 -0.067472 -0.041425 78.040314 79.641685 -119.435951 3096.176270
[planeAlignerCenter]
21 1.037984 -39.380833 -760.874573 0.000009 0.000003 -179.999985 761.893738
22 1.037912 -21.267578 -786.015381 0.000009 0.000003 -179.999985 786.303772
23 1.038294 -1.956100 -807.475037 0.000009 0.000003 -179.999985 807.478027
[Rear_Toe1_01]
21 0.653352 83.966492 -371.173737 0.069059 22.287550 90.030823 380.553192
22 0.653352 83.966492 -371.173737 0.068534 24.479496 90.032616 380.553192
23 0.653352 83.966492 -371.173737 0.068080 26.671436 90.034431 380.553192
[Rear_Toe2_01]
21 178.200760 -294.826019 -362.060547 -0.477432 49.491425 -72.772972 499.765686
22 178.200760 -294.826019 -362.060547 -0.301897 51.034332 -72.382187 499.765686
23 178.200760 -294.826019 -362.060547 -0.103022 52.575848 -71.970184 499.765686
[Rear_Toe3_01]
21 -153.359680 -308.780914 -362.060852 0.404802 49.493298 -109.367714 499.952881
22 -153.359680 -308.780914 -362.060852 0.203978 51.032871 -109.808533 499.952881
23 -153.359680 -308.780914 -362.060852 -0.023212 52.570808 -110.273376 499.952881
[planeLockWeightCenter]
21 1000.000610 0.000404 0.076210 -0.011814 -0.004373 -0.000015 1000.000610
22 1000.000488 0.000400 0.076213 -0.011814 -0.004373 -0.000015 1000.000488
23 1000.000488 0.000396 0.076216 -0.011814 -0.004373 -0.000015 1000.000488
[Rear_Toe1_02]
21 379.707825 0.194073 0.000477 -0.000767 -33.624729 0.000838 379.707855
22 379.707825 0.194073 0.000477 -0.000767 -33.624729 0.000838 379.707855
23 379.707825 0.194073 0.000477 -0.000767 -33.624729 0.000838 379.707855
[Rear_Toe1_03]
21 500.129700 0.165701 0.000119 -0.035560 88.234421 -0.039057 500.129761
22 500.129700 0.165701 0.000119 0.005928 83.196831 0.004175 500.129761
23 500.129700 0.165701 0.000119 0.011378 78.159042 0.011378 500.129761
[Rear_Toe2_02]
21 340.494507 0.000238 -0.000954 0.001185 -74.022316 0.001185 340.494507
22 340.494507 0.000238 -0.000954 0.001184 -74.629547 0.001184 340.494507
23 340.494507 0.000238 -0.000954 0.001183 -75.236801 0.001183 340.494507
[Rear_Toe2_03]
21 433.103577 0.000000 0.000238 0.010101 76.655746 0.010101 433.103546
22 433.103577 0.000000 0.000238 0.010681 77.383842 0.010681 433.103546
23 433.103577 0.000000 0.000238 0.011724 78.508232 0.011724 433.103546
[Rear_Toe3_02]
21 340.494141 -0.000358 -0.000477 0.001185 -74.009926 0.001185 340.494171
22 340.494141 -0.000358 -0.000477 0.001184 -74.599808 0.001184 340.494171
23 340.494141 -0.000358 -0.000477 0.001184 -75.189690 0.001184 340.494171
[Rear_Toe3_03]
21 433.103577 0.001431 -0.000238 0.010087 76.636635 0.010087 433.103546
22 433.103577 0.001431 -0.000238 0.010634 77.326843 0.010634 433.103546
23 433.103577 0.001431 -0.000238 0.011635 78.420532 0.011635 433.103546
[Back_Bone]
21 1312.175781 -701.934692 0.000954 0.763396 -3.650662 -85.498573 1488.125488
22 1312.175781 -701.934692 0.000954 1.139223 -3.630697 -85.173935 1488.125488
23 1312.175781 -701.934692 0.000954 1.515148 -3.612855 -84.849152 1488.125488
[Head]
21 1406.159424 809.709290 0.001431 -0.640357 -1.899519 4.739599 1622.625488
22 1406.159424 809.709290 0.001431 -0.222008 -2.078200 4.686385 1622.625488
23 1406.159424 809.709290 0.001431 0.206778 -2.156507 4.407416 1622.625488
[Motor_Bone]
21 1158.364380 -417.834747 0.000477 -3.495549 0.584007 -105.401466 1231.419434
22 1158.364380 -417.834747 0.000477 0.251848 -0.541806 -106.527901 1231.419434
23 1158.364380 -417.834747 0.000477 2.270580 -1.149515 -107.133400 1231.419434
[Ping_Mechanism]
21 1191.192505 -401.059875 72.503410 0.000103 -0.000053 82.120995 1258.985840
22 1195.652832 -399.999969 83.292557 0.000103 -0.000053 82.120995 1263.536011
23 1199.309326 -399.276093 88.140015 0.000103 -0.000053 82.120995 1267.096313
[BN_LookIK]
21 193.241119 1380.371704 -0.002861 0.000000 89.965736 -31.038179 1393.832153
22 193.241119 1380.371704 -0.002861 0.000000 89.965736 -31.038179 1393.832153
23 193.241119 1380.371704 -0.002861 0.000000 89.965736 -31.038179 1393.832153
[bottomMouth]
21 -435.092926 615.759399 -0.000954 -0.000022 0.000016 73.527184 753.966492
22 -435.092926 615.759399 -0.000954 -0.000022 0.000016 73.527184 753.966492
23 -435.092926 615.759399 -0.000954 -0.000022 0.000016 73.527184 753.966492
[L_Mouth01]
21 554.440979 7.658243 838.222046 150.204178 23.759130 109.605339 1005.027161
22 554.440979 7.658243 838.222046 150.204178 23.759130 109.605339 1005.027161
23 554.440979 7.658243 838.222046 150.204178 23.759130 109.605339 1005.027161
[L_mouthFront]
21 551.629089 934.514771 339.150421 0.000081 2.804060 79.119301 1136.941284
22 551.629089 934.514771 339.150421 0.000081 2.804060 79.119301 1136.941284
23 551.629089 934.514771 339.150421 0.000081 2.804060 79.119301 1136.941284
[mouthGun]
21 55.332661 1627.420898 0.000000 0.000023 0.000009 -11.038128 1628.361328
22 55.332661 1627.420898 0.000000 0.000023 0.000009 -11.038128 1628.361328
23 55.332661 1627.420898 0.000000 0.000023 0.000009 -11.038128 1628.361328
[R_Mouth01]
21 554.442383 7.659197 -838.223938 29.795891 -23.759109 109.605331 1005.029541
22 554.442383 7.659197 -838.223938 29.795891 -23.759109 109.605331 1005.029541
23 554.442383 7.659197 -838.223938 29.795891 -23.759109 109.605331 1005.029541
[R_mouthFront]
21 551.629089 934.514282 -339.151367 0.000029 -2.803930 79.119133 1136.941162
22 551.629089 934.514282 -339.151367 0.000029 -2.803930 79.119133 1136.941162
23 551.629089 934.514282 -339.151367 0.000029 -2.803930 79.119133 1136.941162
[TopMouth]
21 461.269867 -56.106091 -0.008583 -0.000059 -0.000268 92.025169 464.669525
22 461.269867 -56.106091 -0.008583 -0.000059 -0.000268 92.025169 464.669525
23 461.269867 -56.106091 -0.008583 -0.000059 -0.000268 92.025169 464.669525
[weapon_bone]
21 -987.239868 1448.372803 0.001431 0.000000 89.965736 -31.038221 1752.833740
22 -987.239868 1448.372803 0.001431 0.000000 89.965736 -31.038221 1752.833740
23 -987.239868 1448.372803 0.001431 0.000000 89.965736 -31.038221 1752.833740
